{"title":"Street Fighter II V Season 1 DVDRip XviD En Jp - DiGrX","uid":9377073,"size":7342260858,"categoryP":"video","categoryS":"tv_shows","magnet":"?xt=urn:btih:a10463fe18427e18cce165fc832e16b20cd405b5&amp;dn=Street+Fighter+II+V+Season+1+DVDRip+XviD+En+Jp+-+DiGrX&amp;tr=udp%3A%2F%2Ftracker.openbittorrent.com%3A80&amp;tr=udp%3A%2F%2Fopen.demonii.com%3A1337&amp;tr=udp%3A%2F%2Ftracker.coppersurfer.tk%3A6969&amp;tr=udp%3A%2F%2Fexodus.desync.com%3A6969","seeders":3,"leechers":4,"uploader":"dimigeor","files":30,"time":1387639872,"description":"A DiGrX release\n\n\nStreet Fighter II V Season 1 DVDRip XviD En-Jp - DiGrX\n\nAll episodes in XviD from DVDRip\nDual language Audio, English and Japanese\n\nCodec ID, Format: XVID, MPEG-4\nAspect ratio, Dimension: 4:3, 640x480\nAudio: MP3, 2 Channels - English\n2nd Audio: MP3, 2 Channels - Japanese\n\n-----------------------------------------------------------------------------------\n\n\nEpisode 1 example:\n\nGeneral\nComplete name                            : 1x01 Street Fighter II V - \n\t\t\t\t\t\tThe Beginning Of A Journey DVDRip.avi\nFormat                                   : AVI\nFormat/Info                              : Audio Video Interleave\nFile size                                : 273 MiB\nDuration                                 : 23mn 28s\nOverall bit rate                         : 1 623 Kbps\n\nVideo\nID                                       : 0\nFormat                                   : MPEG-4 Visual\nFormat profile                           : Advanced Simple@L5\nFormat settings, BVOP                    : 2\nFormat settings, QPel                    : No\nFormat settings, GMC                     : No warppoints\nFormat settings, Matrix                  : Default (H.263)\nCodec ID                                 : XVID\nCodec ID/Hint                            : XviD\nDuration                                 : 23mn 28s\nBit rate                                 : 1 343 Kbps\nWidth                                    : 640 pixels\nHeight                                   : 480 pixels\nDisplay aspect ratio                     : 4:3\nFrame rate                               : 23.976 fps\nColor space                              : YUV\nChroma subsampling                       : 4:2:0\nBit depth                                : 8 bits\nScan type                                : Progressive\nCompression mode                         : Lossy\nBits/(Pixel*Frame)                       : 0.182\nStream size                              : 226 MiB (83%)\nWriting library                          : XviD 1.2.1 (UTC 2008-12-04)\n\nAudio #1\nID                                       : 1\nFormat                                   : MPEG Audio\nFormat version                           : Version 1\nFormat profile                           : Layer 3\nMode                                     : Joint stereo\nMode extension                           : MS Stereo\nCodec ID                                 : 55\nCodec ID/Hint                            : MP3\nDuration                                 : 23mn 28s\nBit rate mode                            : Constant\nBit rate                                 : 128 Kbps\nChannel(s)                               : 2 channels\nSampling rate                            : 48.0 KHz\nCompression mode                         : Lossy\nStream size                              : 21.5 MiB (8%)\nAlignment                                : Aligned on interleaves\nInterleave, duration                     : 24 ms (0.58 video frame)\n\nAudio #2\nID                                       : 2\nFormat                                   : MPEG Audio\nFormat version                           : Version 1\nFormat profile                           : Layer 3\nCodec ID                                 : 55\nCodec ID/Hint                            : MP3\nDuration                                 : 23mn 28s\nBit rate mode                            : Constant\nBit rate                                 : 128 Kbps\nChannel(s)                               : 2 channels\nSampling rate                            : 48.0 KHz\nCompression mode                         : Lossy\nStream size                              : 21.5 MiB (8%)\nAlignment                                : Aligned on interleaves\nInterleave, duration                     : 24 ms (0.58 video frame)\nWriting library                          : LAME3.99.5I9SÃ‚Â±ÃŽÂ¥2Ã‚ÂˆÃŽÂ«ÃŽÂ“#\n\n","torrent":{"xt":"urn:btih:a10463fe18427e18cce165fc832e16b20cd405b5","amp;dn":"Street+Fighter+II+V+Season+1+DVDRip+XviD+En+Jp+-+DiGrX","amp;tr":["udp%3A%2F%2Ftracker.openbittorrent.com%3A80","udp%3A%2F%2Fopen.demonii.com%3A1337","udp%3A%2F%2Ftracker.coppersurfer.tk%3A6969","udp%3A%2F%2Fexodus.desync.com%3A6969"],"infoHash":"a10463fe18427e18cce165fc832e16b20cd405b5","infoHashBuffer":{"type":"Buffer","data":[161,4,99,254,24,66,126,24,204,225,101,252,131,46,22,178,12,212,5,181]},"announce":[],"urlList":[]}}